{
	"asset":{
		"generator":"Khronos glTF Blender I/O v4.3.47",
		"version":"2.0"
	},
	"extensionsUsed":[
		"KHR_materials_specular"
	],
	"scene":0,
	"scenes":[
		{
			"name":"Scene",
			"nodes":[
				0
			]
		}
	],
	"nodes":[
		{
			"mesh":0,
			"name":"Basketball_geo_01",
			"rotation":[
				0.7071068286895752,
				0,
				0,
				0.7071068286895752
			],
			"scale":[
				0.009999999776482582,
				0.009999999776482582,
				0.009999999776482582
			]
		}
	],
	"materials":[
		{
			"doubleSided":true,
			"extensions":{
				"KHR_materials_specular":{
					"specularColorFactor":[
						2.0,
						2.0,
						2.0
					]
				}
			},
			"name":"Basketball_size6_SF:Basketball_size7",
			"normalTexture":{
				"index":0
			},
			"pbrMetallicRoughness":{
				"baseColorTexture":{
					"index":1
				},
				"metallicFactor":0.5,
				"roughnessFactor":0.858578622341156
			}
		}
	],
	"meshes":[
		{
			"name":"Mesh",
			"primitives":[
				{
					"attributes":{
						"POSITION":0,
						"NORMAL":1,
						"TEXCOORD_0":2
					},
					"indices":3,
					"material":0
				}
			]
		}
	],
	"textures":[
		{
			"sampler":0,
			"source":0
		},
		{
			"sampler":0,
			"source":1
		}
	],
	"images":[
		{
			"mimeType":"image/jpeg",
			"name":"Basketball_size6_normal",
			"uri":"TX/Basketball_size6_normal.jpg"
		},
		{
			"mimeType":"image/jpeg",
			"name":"Basketball_size6",
			"uri":"TX/Basketball_size6.jpg"
		}
	],
	"accessors":[
		{
			"bufferView":0,
			"componentType":5126,
			"count":2426,
			"max":[
				-271.3055725097656,
				4.392065525054932,
				-0.14138799905776978
			],
			"min":[
				-279.6560974121094,
				-3.9773967266082764,
				-8.487332344055176
			],
			"type":"VEC3"
		},
		{
			"bufferView":1,
			"componentType":5126,
			"count":2426,
			"type":"VEC3"
		},
		{
			"bufferView":2,
			"componentType":5126,
			"count":2426,
			"type":"VEC2"
		},
		{
			"bufferView":3,
			"componentType":5123,
			"count":13650,
			"type":"SCALAR"
		}
	],
	"bufferViews":[
		{
			"buffer":0,
			"byteLength":29112,
			"byteOffset":0,
			"target":34962
		},
		{
			"buffer":0,
			"byteLength":29112,
			"byteOffset":29112,
			"target":34962
		},
		{
			"buffer":0,
			"byteLength":19408,
			"byteOffset":58224,
			"target":34962
		},
		{
			"buffer":0,
			"byteLength":27300,
			"byteOffset":77632,
			"target":34963
		}
	],
	"samplers":[
		{
			"magFilter":9729,
			"minFilter":9987
		}
	],
	"buffers":[
		{
			"byteLength":104932,
			"uri":"ball_01.bin"
		}
	]
}
