{
	"asset":{
		"generator":"Khronos glTF Blender I/O v4.3.47",
		"version":"2.0"
	},
	"extensionsUsed":[
		"KHR_materials_specular",
		"EXT_texture_webp"
	],
	"scene":0,
	"scenes":[
		{
			"name":"Scene",
			"nodes":[
				0
			]
		}
	],
	"nodes":[
		{
			"mesh":0,
			"name":"housing_court_geo_01",
			"rotation":[
				0.7071068286895752,
				0,
				0,
				0.7071068286895752
			],
			"scale":[
				0.009999999776482582,
				0.009999999776482582,
				0.009999999776482582
			]
		}
	],
	"materials":[
		{
			"doubleSided":true,
			"extensions":{
				"KHR_materials_specular":{
					"specularColorFactor":[
						2.0,
						2.0,
						2.0
					]
				}
			},
			"name":"window_frame_mat_01",
			"pbrMetallicRoughness":{
				"baseColorTexture":{
					"index":0
				},
				"metallicFactor":0,
				"roughnessFactor":0.5
			}
		},
		{
			"doubleSided":true,
			"extensions":{
				"KHR_materials_specular":{
					"specularColorFactor":[
						2.0,
						2.0,
						2.0
					]
				}
			},
			"name":"window_glass_mat_01",
			"pbrMetallicRoughness":{
				"baseColorTexture":{
					"index":1
				},
				"metallicFactor":0,
				"roughnessFactor":0.5
			}
		},
		{
			"doubleSided":true,
			"extensions":{
				"KHR_materials_specular":{
					"specularColorFactor":[
						2.0,
						2.0,
						2.0
					]
				}
			},
			"name":"building_frame_mat_01",
			"pbrMetallicRoughness":{
				"baseColorTexture":{
					"index":2
				},
				"metallicFactor":0,
				"roughnessFactor":0.5
			}
		},
		{
			"doubleSided":true,
			"extensions":{
				"KHR_materials_specular":{
					"specularColorFactor":[
						2.0,
						2.0,
						2.0
					]
				}
			},
			"name":"building_metalFence_mat_01",
			"pbrMetallicRoughness":{
				"baseColorTexture":{
					"index":3
				},
				"metallicFactor":0,
				"roughnessFactor":0.5
			}
		},
		{
			"doubleSided":true,
			"extensions":{
				"KHR_materials_specular":{
					"specularColorFactor":[
						2.0,
						2.0,
						2.0
					]
				}
			},
			"name":"building_structure_mat_01",
			"pbrMetallicRoughness":{
				"baseColorTexture":{
					"index":4
				},
				"metallicFactor":0,
				"roughnessFactor":0.5
			}
		}
	],
	"meshes":[
		{
			"name":"Mesh.004",
			"primitives":[
				{
					"attributes":{
						"POSITION":0,
						"NORMAL":1,
						"TEXCOORD_0":2
					},
					"indices":3,
					"material":0
				},
				{
					"attributes":{
						"POSITION":4,
						"NORMAL":5,
						"TEXCOORD_0":6
					},
					"indices":7,
					"material":1
				},
				{
					"attributes":{
						"POSITION":8,
						"NORMAL":9,
						"TEXCOORD_0":10
					},
					"indices":11,
					"material":2
				},
				{
					"attributes":{
						"POSITION":12,
						"NORMAL":13,
						"TEXCOORD_0":14
					},
					"indices":15,
					"material":3
				},
				{
					"attributes":{
						"POSITION":16,
						"NORMAL":17,
						"TEXCOORD_0":18
					},
					"indices":19,
					"material":4
				}
			]
		}
	],
	"textures":[
		{
			"extensions":{
				"EXT_texture_webp":{
					"source":0
				}
			},
			"sampler":0,
			"source":1
		},
		{
			"extensions":{
				"EXT_texture_webp":{
					"source":2
				}
			},
			"sampler":0,
			"source":3
		},
		{
			"extensions":{
				"EXT_texture_webp":{
					"source":4
				}
			},
			"sampler":0,
			"source":5
		},
		{
			"extensions":{
				"EXT_texture_webp":{
					"source":6
				}
			},
			"sampler":0,
			"source":7
		},
		{
			"extensions":{
				"EXT_texture_webp":{
					"source":8
				}
			},
			"sampler":0,
			"source":9
		}
	],
	"images":[
		{
			"mimeType":"image/webp",
			"name":"window1",
			"uri":"TX/window1.webp"
		},
		{
			"mimeType":"image/png",
			"name":"window1",
			"uri":"TX/window1.png"
		},
		{
			"mimeType":"image/webp",
			"name":"window2",
			"uri":"TX/window2.webp"
		},
		{
			"mimeType":"image/png",
			"name":"window2",
			"uri":"TX/window2.png"
		},
		{
			"mimeType":"image/webp",
			"name":"building2",
			"uri":"TX/building2.webp"
		},
		{
			"mimeType":"image/png",
			"name":"building2",
			"uri":"TX/building2.png"
		},
		{
			"mimeType":"image/webp",
			"name":"metalfence",
			"uri":"TX/metalfence.webp"
		},
		{
			"mimeType":"image/png",
			"name":"metalfence",
			"uri":"TX/metalfence.png"
		},
		{
			"mimeType":"image/webp",
			"name":"building1",
			"uri":"TX/building1.webp"
		},
		{
			"mimeType":"image/png",
			"name":"building1",
			"uri":"TX/building1.png"
		}
	],
	"accessors":[
		{
			"bufferView":0,
			"componentType":5126,
			"count":44430,
			"max":[
				1248.977783203125,
				1028.040283203125,
				0.9176651239395142
			],
			"min":[
				-987.4443359375,
				-1029.4168701171875,
				-734.461669921875
			],
			"type":"VEC3"
		},
		{
			"bufferView":1,
			"componentType":5126,
			"count":44430,
			"type":"VEC3"
		},
		{
			"bufferView":2,
			"componentType":5126,
			"count":44430,
			"type":"VEC2"
		},
		{
			"bufferView":3,
			"componentType":5123,
			"count":86784,
			"type":"SCALAR"
		},
		{
			"bufferView":4,
			"componentType":5126,
			"count":4136,
			"max":[
				1244.9512939453125,
				1024.013916015625,
				-1.8999099731445312
			],
			"min":[
				-983.4178466796875,
				-1025.390380859375,
				-730.4351806640625
			],
			"type":"VEC3"
		},
		{
			"bufferView":5,
			"componentType":5126,
			"count":4136,
			"type":"VEC3"
		},
		{
			"bufferView":6,
			"componentType":5126,
			"count":4136,
			"type":"VEC2"
		},
		{
			"bufferView":7,
			"componentType":5123,
			"count":6204,
			"type":"SCALAR"
		},
		{
			"bufferView":8,
			"componentType":5126,
			"count":416,
			"max":[
				1282.241455078125,
				1062.2537841796875,
				-0.24123407900333405
			],
			"min":[
				-1280.2864990234375,
				-1059.079345703125,
				-774.755615234375
			],
			"type":"VEC3"
		},
		{
			"bufferView":9,
			"componentType":5126,
			"count":416,
			"type":"VEC3"
		},
		{
			"bufferView":10,
			"componentType":5126,
			"count":416,
			"type":"VEC2"
		},
		{
			"bufferView":11,
			"componentType":5123,
			"count":720,
			"type":"SCALAR"
		},
		{
			"bufferView":12,
			"componentType":5126,
			"count":1024,
			"max":[
				868.0240478515625,
				1056.3009033203125,
				-0.24119657278060913
			],
			"min":[
				-865.6162109375,
				-1053.12646484375,
				-285.13043212890625
			],
			"type":"VEC3"
		},
		{
			"bufferView":13,
			"componentType":5126,
			"count":1024,
			"type":"VEC3"
		},
		{
			"bufferView":14,
			"componentType":5126,
			"count":1024,
			"type":"VEC2"
		},
		{
			"bufferView":15,
			"componentType":5123,
			"count":1536,
			"type":"SCALAR"
		},
		{
			"bufferView":16,
			"componentType":5126,
			"count":96,
			"max":[
				1276.143310546875,
				1056.3011474609375,
				-0.24119657278060913
			],
			"min":[
				-1274.188720703125,
				-1053.1265869140625,
				-754.6105346679688
			],
			"type":"VEC3"
		},
		{
			"bufferView":17,
			"componentType":5126,
			"count":96,
			"type":"VEC3"
		},
		{
			"bufferView":18,
			"componentType":5126,
			"count":96,
			"type":"VEC2"
		},
		{
			"bufferView":19,
			"componentType":5123,
			"count":144,
			"type":"SCALAR"
		}
	],
	"bufferViews":[
		{
			"buffer":0,
			"byteLength":533160,
			"byteOffset":0,
			"target":34962
		},
		{
			"buffer":0,
			"byteLength":533160,
			"byteOffset":533160,
			"target":34962
		},
		{
			"buffer":0,
			"byteLength":355440,
			"byteOffset":1066320,
			"target":34962
		},
		{
			"buffer":0,
			"byteLength":173568,
			"byteOffset":1421760,
			"target":34963
		},
		{
			"buffer":0,
			"byteLength":49632,
			"byteOffset":1595328,
			"target":34962
		},
		{
			"buffer":0,
			"byteLength":49632,
			"byteOffset":1644960,
			"target":34962
		},
		{
			"buffer":0,
			"byteLength":33088,
			"byteOffset":1694592,
			"target":34962
		},
		{
			"buffer":0,
			"byteLength":12408,
			"byteOffset":1727680,
			"target":34963
		},
		{
			"buffer":0,
			"byteLength":4992,
			"byteOffset":1740088,
			"target":34962
		},
		{
			"buffer":0,
			"byteLength":4992,
			"byteOffset":1745080,
			"target":34962
		},
		{
			"buffer":0,
			"byteLength":3328,
			"byteOffset":1750072,
			"target":34962
		},
		{
			"buffer":0,
			"byteLength":1440,
			"byteOffset":1753400,
			"target":34963
		},
		{
			"buffer":0,
			"byteLength":12288,
			"byteOffset":1754840,
			"target":34962
		},
		{
			"buffer":0,
			"byteLength":12288,
			"byteOffset":1767128,
			"target":34962
		},
		{
			"buffer":0,
			"byteLength":8192,
			"byteOffset":1779416,
			"target":34962
		},
		{
			"buffer":0,
			"byteLength":3072,
			"byteOffset":1787608,
			"target":34963
		},
		{
			"buffer":0,
			"byteLength":1152,
			"byteOffset":1790680,
			"target":34962
		},
		{
			"buffer":0,
			"byteLength":1152,
			"byteOffset":1791832,
			"target":34962
		},
		{
			"buffer":0,
			"byteLength":768,
			"byteOffset":1792984,
			"target":34962
		},
		{
			"buffer":0,
			"byteLength":288,
			"byteOffset":1793752,
			"target":34963
		}
	],
	"samplers":[
		{
			"magFilter":9729,
			"minFilter":9987
		}
	],
	"buffers":[
		{
			"byteLength":1794040,
			"uri":"housing_01.bin"
		}
	]
}
